<?xml version="1.0" encoding="utf-8"?>
<!-- Generator: Adobe Illustrator 24.3.0, SVG Export Plug-In . SVG Version: 6.00 Build 0)  -->
<svg version="1.1" id="Layer_1" xmlns="http://www.w3.org/2000/svg" xmlns:xlink="http://www.w3.org/1999/xlink" x="0px" y="0px"
	 viewBox="0 0 1920 1080" style="enable-background:new 0 0 1920 1080;" xml:space="preserve">
<style type="text/css">
	.st0{fill:url(#SVGID_1_);}
	.st1{fill:#FFFFFF;}
	.st2{fill:url(#SVGID_2_);}
	.st3{fill:url(#SVGID_3_);}
	.st4{fill:url(#SVGID_4_);}
	.st5{fill:url(#SVGID_5_);}
	.st6{fill:url(#SVGID_6_);}
	.st7{fill:url(#SVGID_7_);}
</style>
<g>
	<g>
		<g>
			<linearGradient id="SVGID_1_" gradientUnits="userSpaceOnUse" x1="1413.5885" y1="438.6874" x2="1636.7867" y2="438.6874">
				<stop  offset="0.1069" style="stop-color:#0F26AA"/>
				<stop  offset="0.8803" style="stop-color:#FF4A56"/>
			</linearGradient>
			<path class="st0" d="M1645.59,422.82v-35.69c-56.87,0-103.13,46.26-103.13,103.13h35.69
				C1578.16,453.07,1608.41,422.82,1645.59,422.82z"/>
		</g>
		<g>
			<linearGradient id="SVGID_2_" gradientUnits="userSpaceOnUse" x1="1413.5885" y1="438.6874" x2="1636.7866" y2="438.6874">
				<stop  offset="0.1069" style="stop-color:#0F26AA"/>
				<stop  offset="0.8803" style="stop-color:#FF4A56"/>
			</linearGradient>
			<path class="st2" d="M1439.29,387.12v35.69c37.19,0,67.44,30.25,67.44,67.44h35.69C1542.42,433.39,1496.16,387.12,1439.29,387.12
				z"/>
		</g>
	</g>
	<g>
		<path d="M274.41,506.38c0-70.7,49.89-120.27,120.93-120.27c33.7,0,63.11,12.23,86.23,35.68l-25.77,23.79
			c-15.86-15.86-35.35-24.12-59.14-24.12c-49.23,0-83.26,34.69-83.26,84.91c0,50.22,34.03,84.91,83.26,84.91
			c23.13,0,45.59-8.92,61.79-24.78l24.78,25.77c-23.13,22.8-52.53,34.36-87.55,34.36C323.96,626.64,274.41,577.08,274.41,506.38z"/>
		<path d="M657.87,602.87l17.18-26.76c14.54,11.56,36.01,18.17,57.49,18.17c20.82,0,32.71-6.61,32.71-18.5
			c0-11.56-10.57-17.18-35.68-19.82c-42.62-3.96-66.74-21.81-66.74-50.22c0-29.74,28.41-49.89,70.7-49.89
			c24.78,0,46.59,6.28,64.76,18.83l-16.19,26.43c-14.54-9.25-30.07-13.88-46.92-13.88c-23.46,0-36.01,6.61-36.01,18.5
			c0,10.57,9.58,16.19,33.37,18.83c48.24,5.29,69.38,20.82,69.38,51.54c0,30.4-28.08,50.88-70.37,50.88
			C704.12,626.99,679.67,619.06,657.87,602.87z"/>
		<path d="M820.31,541.42c0-50.55,35.02-85.24,86.9-85.24c23.79,0,44.27,8.26,61.78,25.11l-22.47,24.12
			c-9.91-9.91-24.12-15.53-38.66-15.53c-29.74,0-50.55,21.15-50.55,51.54c0,30.73,20.48,51.54,50.55,51.54
			c15.86,0,30.4-5.95,40.31-16.85l22.8,24.78c-18.17,17.51-38.33,25.77-63.44,25.77C854.67,626.66,820.31,592.96,820.31,541.42z"/>
		<path d="M1123.57,459.81l-0.33,21.81c-12.56-15.86-34.03-25.44-59.47-25.44c-47.91,0-80.95,35.02-80.95,85.25
			c0,50.22,33.04,85.24,80.95,85.24c25.11,0,46.91-9.58,59.47-25.44l0.33,21.81h33.04V459.81H1123.57z M1069.71,592.96
			c-29.41,0-49.89-21.15-49.89-51.54c0-30.4,20.49-51.54,49.89-51.54c29.4,0,49.89,21.15,49.89,51.54
			C1119.6,571.81,1099.12,592.96,1069.71,592.96z"/>
		<rect x="1201.04" y="387.12" width="37" height="235.72"/>
		<path d="M1355.37,455.51c-50.55,0-84.58,34.36-84.58,84.91c0,52.2,34.69,86.23,88.55,86.23c28.08,0,54.18-10.9,70.37-28.41
			l-22.47-21.81c-9.91,10.24-28.41,16.85-46.92,16.85c-28.74,0-48.57-15.2-51.54-38.99h130.51
			C1444.58,493.18,1412.86,455.51,1355.37,455.51z M1309.11,525.56c4.63-24.12,21.48-38,47.25-38c27.1,0,44.94,14.87,47.58,38
			H1309.11z"/>
		<g>
			<path d="M576.66,655.06l79-195.25h-40.15l-45.68,121.82l-45.68-121.82h-39.83l66.29,165.71l-9.33,21.43
				c-4.45,9.65-12.49,13.95-26.05,13.95c-2.65,0-7.04-0.44-11.22-1.64l-5.4,32.38c5.56,0.98,13.8,1.7,17.96,1.71
				C548.8,692.57,566.21,681.48,576.66,655.06z"/>
		</g>
	</g>
</g>
</svg>
